<mxfile host="app.diagrams.net" modified="2020-09-24T02:16:00.177Z" agent="5.0 (Windows NT 10.0; Win64; x64) AppleWebKit/537.36 (KHTML, like Gecko) Chrome/85.0.4183.102 Safari/537.36" etag="GWECIqTbzu_8mM6DW7LQ" version="13.7.5" type="github">
  <diagram id="C5RBs43oDa-KdzZeNtuy" name="Page-1">
    <mxGraphModel dx="868" dy="492" grid="1" gridSize="10" guides="1" tooltips="1" connect="1" arrows="1" fold="1" page="1" pageScale="1" pageWidth="827" pageHeight="1169" math="0" shadow="0">
      <root>
        <mxCell id="WIyWlLk6GJQsqaUBKTNV-0" />
        <mxCell id="WIyWlLk6GJQsqaUBKTNV-1" parent="WIyWlLk6GJQsqaUBKTNV-0" />
        <mxCell id="SlMSiqB-69G4Y2Gz-R__-4" style="edgeStyle=orthogonalEdgeStyle;rounded=0;orthogonalLoop=1;jettySize=auto;html=1;entryX=0;entryY=0.5;entryDx=0;entryDy=0;exitX=1;exitY=0.5;exitDx=0;exitDy=0;fillColor=#fff2cc;strokeColor=#d6b656;" edge="1" parent="WIyWlLk6GJQsqaUBKTNV-1" source="SlMSiqB-69G4Y2Gz-R__-1" target="SlMSiqB-69G4Y2Gz-R__-3">
          <mxGeometry relative="1" as="geometry">
            <Array as="points">
              <mxPoint x="50" y="25" />
              <mxPoint x="100" y="25" />
            </Array>
          </mxGeometry>
        </mxCell>
        <mxCell id="SlMSiqB-69G4Y2Gz-R__-1" value="Inicio" style="ellipse;whiteSpace=wrap;html=1;aspect=fixed;fillColor=#f5f5f5;strokeColor=#666666;fontColor=#333333;" vertex="1" parent="WIyWlLk6GJQsqaUBKTNV-1">
          <mxGeometry x="10" y="10" width="40" height="40" as="geometry" />
        </mxCell>
        <mxCell id="SlMSiqB-69G4Y2Gz-R__-9" style="edgeStyle=orthogonalEdgeStyle;rounded=0;orthogonalLoop=1;jettySize=auto;html=1;entryX=0.5;entryY=0;entryDx=0;entryDy=0;fillColor=#fff2cc;strokeColor=#d6b656;" edge="1" parent="WIyWlLk6GJQsqaUBKTNV-1" source="SlMSiqB-69G4Y2Gz-R__-3" target="SlMSiqB-69G4Y2Gz-R__-5">
          <mxGeometry relative="1" as="geometry" />
        </mxCell>
        <mxCell id="SlMSiqB-69G4Y2Gz-R__-3" value="path, options" style="shape=parallelogram;perimeter=parallelogramPerimeter;whiteSpace=wrap;html=1;fixedSize=1;fillColor=#fff2cc;strokeColor=#d6b656;" vertex="1" parent="WIyWlLk6GJQsqaUBKTNV-1">
          <mxGeometry x="180" width="120" height="50" as="geometry" />
        </mxCell>
        <mxCell id="SlMSiqB-69G4Y2Gz-R__-8" style="edgeStyle=orthogonalEdgeStyle;rounded=0;orthogonalLoop=1;jettySize=auto;html=1;entryX=0;entryY=0.5;entryDx=0;entryDy=0;exitX=1;exitY=0.5;exitDx=0;exitDy=0;fillColor=#f8cecc;strokeColor=#b85450;" edge="1" parent="WIyWlLk6GJQsqaUBKTNV-1" source="SlMSiqB-69G4Y2Gz-R__-5" target="SlMSiqB-69G4Y2Gz-R__-7">
          <mxGeometry relative="1" as="geometry">
            <mxPoint x="390" y="190" as="targetPoint" />
            <Array as="points" />
          </mxGeometry>
        </mxCell>
        <mxCell id="SlMSiqB-69G4Y2Gz-R__-10" style="edgeStyle=orthogonalEdgeStyle;rounded=0;orthogonalLoop=1;jettySize=auto;html=1;entryX=0.5;entryY=0;entryDx=0;entryDy=0;fillColor=#d5e8d4;strokeColor=#82b366;" edge="1" parent="WIyWlLk6GJQsqaUBKTNV-1" source="SlMSiqB-69G4Y2Gz-R__-5" target="SlMSiqB-69G4Y2Gz-R__-22">
          <mxGeometry relative="1" as="geometry">
            <mxPoint x="180" y="280" as="targetPoint" />
            <Array as="points">
              <mxPoint x="240" y="240" />
              <mxPoint x="80" y="240" />
            </Array>
          </mxGeometry>
        </mxCell>
        <mxCell id="SlMSiqB-69G4Y2Gz-R__-25" style="edgeStyle=orthogonalEdgeStyle;rounded=0;orthogonalLoop=1;jettySize=auto;html=1;entryX=0.5;entryY=0;entryDx=0;entryDy=0;exitX=0.5;exitY=1;exitDx=0;exitDy=0;fillColor=#d5e8d4;strokeColor=#82b366;" edge="1" parent="WIyWlLk6GJQsqaUBKTNV-1" source="SlMSiqB-69G4Y2Gz-R__-5" target="SlMSiqB-69G4Y2Gz-R__-23">
          <mxGeometry relative="1" as="geometry">
            <mxPoint x="170" y="180" as="sourcePoint" />
            <Array as="points">
              <mxPoint x="240" y="240" />
              <mxPoint x="430" y="240" />
            </Array>
          </mxGeometry>
        </mxCell>
        <mxCell id="SlMSiqB-69G4Y2Gz-R__-5" value="Â¿path es absoluta?" style="rhombus;whiteSpace=wrap;html=1;fillColor=#ffe6cc;strokeColor=#d79b00;" vertex="1" parent="WIyWlLk6GJQsqaUBKTNV-1">
          <mxGeometry x="200" y="90" width="80" height="80" as="geometry" />
        </mxCell>
        <mxCell id="SlMSiqB-69G4Y2Gz-R__-17" style="edgeStyle=orthogonalEdgeStyle;rounded=0;orthogonalLoop=1;jettySize=auto;html=1;exitX=0.5;exitY=0;exitDx=0;exitDy=0;entryX=0.5;entryY=0;entryDx=0;entryDy=0;fillColor=#fff2cc;strokeColor=#d6b656;" edge="1" parent="WIyWlLk6GJQsqaUBKTNV-1" source="SlMSiqB-69G4Y2Gz-R__-7" target="SlMSiqB-69G4Y2Gz-R__-5">
          <mxGeometry relative="1" as="geometry">
            <Array as="points" />
          </mxGeometry>
        </mxCell>
        <mxCell id="SlMSiqB-69G4Y2Gz-R__-7" value="Convertir Path a absoluta" style="rounded=0;whiteSpace=wrap;html=1;fillColor=#ffe6cc;strokeColor=#d79b00;" vertex="1" parent="WIyWlLk6GJQsqaUBKTNV-1">
          <mxGeometry x="450" y="100" width="120" height="60" as="geometry" />
        </mxCell>
        <mxCell id="SlMSiqB-69G4Y2Gz-R__-12" value="SI" style="text;html=1;strokeColor=none;fillColor=none;align=center;verticalAlign=middle;whiteSpace=wrap;rounded=0;" vertex="1" parent="WIyWlLk6GJQsqaUBKTNV-1">
          <mxGeometry x="240" y="190" width="40" height="20" as="geometry" />
        </mxCell>
        <mxCell id="SlMSiqB-69G4Y2Gz-R__-15" value="NO" style="text;html=1;strokeColor=none;fillColor=none;align=center;verticalAlign=middle;whiteSpace=wrap;rounded=0;" vertex="1" parent="WIyWlLk6GJQsqaUBKTNV-1">
          <mxGeometry x="340" y="110" width="40" height="20" as="geometry" />
        </mxCell>
        <mxCell id="SlMSiqB-69G4Y2Gz-R__-26" style="edgeStyle=orthogonalEdgeStyle;rounded=0;orthogonalLoop=1;jettySize=auto;html=1;fillColor=#d5e8d4;strokeColor=#82b366;" edge="1" parent="WIyWlLk6GJQsqaUBKTNV-1" source="SlMSiqB-69G4Y2Gz-R__-22" target="SlMSiqB-69G4Y2Gz-R__-27">
          <mxGeometry relative="1" as="geometry">
            <mxPoint x="80" y="400" as="targetPoint" />
          </mxGeometry>
        </mxCell>
        <mxCell id="SlMSiqB-69G4Y2Gz-R__-45" style="edgeStyle=orthogonalEdgeStyle;rounded=0;orthogonalLoop=1;jettySize=auto;html=1;exitX=0;exitY=0.5;exitDx=0;exitDy=0;fillColor=#f8cecc;strokeColor=#b85450;" edge="1" parent="WIyWlLk6GJQsqaUBKTNV-1" source="SlMSiqB-69G4Y2Gz-R__-22" target="SlMSiqB-69G4Y2Gz-R__-44">
          <mxGeometry relative="1" as="geometry">
            <Array as="points">
              <mxPoint x="10" y="320" />
              <mxPoint x="10" y="660" />
            </Array>
          </mxGeometry>
        </mxCell>
        <mxCell id="SlMSiqB-69G4Y2Gz-R__-22" value="Path es directorio" style="rhombus;whiteSpace=wrap;html=1;fillColor=#fff2cc;strokeColor=#d6b656;" vertex="1" parent="WIyWlLk6GJQsqaUBKTNV-1">
          <mxGeometry x="40" y="280" width="80" height="80" as="geometry" />
        </mxCell>
        <mxCell id="SlMSiqB-69G4Y2Gz-R__-28" style="edgeStyle=orthogonalEdgeStyle;rounded=0;orthogonalLoop=1;jettySize=auto;html=1;entryX=0.5;entryY=0;entryDx=0;entryDy=0;fillColor=#d5e8d4;strokeColor=#82b366;" edge="1" parent="WIyWlLk6GJQsqaUBKTNV-1" source="SlMSiqB-69G4Y2Gz-R__-23" target="SlMSiqB-69G4Y2Gz-R__-31">
          <mxGeometry relative="1" as="geometry">
            <mxPoint x="430" y="400" as="targetPoint" />
          </mxGeometry>
        </mxCell>
        <mxCell id="SlMSiqB-69G4Y2Gz-R__-49" style="edgeStyle=orthogonalEdgeStyle;rounded=0;orthogonalLoop=1;jettySize=auto;html=1;entryX=1;entryY=0.5;entryDx=0;entryDy=0;fillColor=#f8cecc;strokeColor=#b85450;" edge="1" parent="WIyWlLk6GJQsqaUBKTNV-1" source="SlMSiqB-69G4Y2Gz-R__-23" target="SlMSiqB-69G4Y2Gz-R__-44">
          <mxGeometry relative="1" as="geometry">
            <Array as="points">
              <mxPoint x="730" y="320" />
              <mxPoint x="730" y="670" />
            </Array>
          </mxGeometry>
        </mxCell>
        <mxCell id="SlMSiqB-69G4Y2Gz-R__-23" value="Path es archivo" style="rhombus;whiteSpace=wrap;html=1;fillColor=#fff2cc;strokeColor=#d6b656;" vertex="1" parent="WIyWlLk6GJQsqaUBKTNV-1">
          <mxGeometry x="390" y="280" width="80" height="80" as="geometry" />
        </mxCell>
        <mxCell id="SlMSiqB-69G4Y2Gz-R__-38" style="edgeStyle=orthogonalEdgeStyle;rounded=0;orthogonalLoop=1;jettySize=auto;html=1;entryX=0;entryY=0.5;entryDx=0;entryDy=0;fillColor=#fff2cc;strokeColor=#d6b656;" edge="1" parent="WIyWlLk6GJQsqaUBKTNV-1" source="SlMSiqB-69G4Y2Gz-R__-27" target="SlMSiqB-69G4Y2Gz-R__-33">
          <mxGeometry relative="1" as="geometry" />
        </mxCell>
        <mxCell id="SlMSiqB-69G4Y2Gz-R__-27" value="Extraer archivos md" style="rounded=0;whiteSpace=wrap;html=1;fillColor=#ffe6cc;strokeColor=#d79b00;" vertex="1" parent="WIyWlLk6GJQsqaUBKTNV-1">
          <mxGeometry x="150" y="400" width="120" height="60" as="geometry" />
        </mxCell>
        <mxCell id="SlMSiqB-69G4Y2Gz-R__-34" style="edgeStyle=orthogonalEdgeStyle;rounded=0;orthogonalLoop=1;jettySize=auto;html=1;fillColor=#d5e8d4;strokeColor=#82b366;" edge="1" parent="WIyWlLk6GJQsqaUBKTNV-1" source="SlMSiqB-69G4Y2Gz-R__-31" target="SlMSiqB-69G4Y2Gz-R__-33">
          <mxGeometry relative="1" as="geometry" />
        </mxCell>
        <mxCell id="SlMSiqB-69G4Y2Gz-R__-39" style="edgeStyle=orthogonalEdgeStyle;rounded=0;orthogonalLoop=1;jettySize=auto;html=1;fillColor=#f8cecc;strokeColor=#b85450;" edge="1" parent="WIyWlLk6GJQsqaUBKTNV-1" source="SlMSiqB-69G4Y2Gz-R__-31" target="SlMSiqB-69G4Y2Gz-R__-40">
          <mxGeometry relative="1" as="geometry">
            <mxPoint x="550" y="430" as="targetPoint" />
          </mxGeometry>
        </mxCell>
        <mxCell id="SlMSiqB-69G4Y2Gz-R__-31" value="Archivo es md" style="rhombus;whiteSpace=wrap;html=1;fillColor=#fff2cc;strokeColor=#d6b656;" vertex="1" parent="WIyWlLk6GJQsqaUBKTNV-1">
          <mxGeometry x="385" y="400" width="90" height="80" as="geometry" />
        </mxCell>
        <mxCell id="SlMSiqB-69G4Y2Gz-R__-54" style="edgeStyle=orthogonalEdgeStyle;rounded=0;orthogonalLoop=1;jettySize=auto;html=1;fillColor=#fff2cc;strokeColor=#d6b656;" edge="1" parent="WIyWlLk6GJQsqaUBKTNV-1" source="SlMSiqB-69G4Y2Gz-R__-33" target="SlMSiqB-69G4Y2Gz-R__-52">
          <mxGeometry relative="1" as="geometry" />
        </mxCell>
        <mxCell id="SlMSiqB-69G4Y2Gz-R__-33" value="Obtener array de objetos con propiedades:&lt;br&gt;&amp;nbsp;href, text, file" style="rounded=0;whiteSpace=wrap;html=1;fillColor=#ffe6cc;strokeColor=#d79b00;" vertex="1" parent="WIyWlLk6GJQsqaUBKTNV-1">
          <mxGeometry x="370" y="510" width="120" height="60" as="geometry" />
        </mxCell>
        <mxCell id="SlMSiqB-69G4Y2Gz-R__-35" value="SI" style="text;html=1;strokeColor=none;fillColor=none;align=center;verticalAlign=middle;whiteSpace=wrap;rounded=0;" vertex="1" parent="WIyWlLk6GJQsqaUBKTNV-1">
          <mxGeometry x="220" y="350" width="40" height="20" as="geometry" />
        </mxCell>
        <mxCell id="SlMSiqB-69G4Y2Gz-R__-36" value="SI" style="text;html=1;strokeColor=none;fillColor=none;align=center;verticalAlign=middle;whiteSpace=wrap;rounded=0;" vertex="1" parent="WIyWlLk6GJQsqaUBKTNV-1">
          <mxGeometry x="420" y="370" width="40" height="20" as="geometry" />
        </mxCell>
        <mxCell id="SlMSiqB-69G4Y2Gz-R__-37" value="SI" style="text;html=1;strokeColor=none;fillColor=none;align=center;verticalAlign=middle;whiteSpace=wrap;rounded=0;" vertex="1" parent="WIyWlLk6GJQsqaUBKTNV-1">
          <mxGeometry x="420" y="480" width="40" height="20" as="geometry" />
        </mxCell>
        <mxCell id="SlMSiqB-69G4Y2Gz-R__-41" style="edgeStyle=orthogonalEdgeStyle;rounded=0;orthogonalLoop=1;jettySize=auto;html=1;entryX=1;entryY=0;entryDx=0;entryDy=0;exitX=0.5;exitY=0;exitDx=0;exitDy=0;fillColor=#fff2cc;strokeColor=#d6b656;" edge="1" parent="WIyWlLk6GJQsqaUBKTNV-1" source="SlMSiqB-69G4Y2Gz-R__-40" target="SlMSiqB-69G4Y2Gz-R__-31">
          <mxGeometry relative="1" as="geometry">
            <mxPoint x="570" y="320" as="targetPoint" />
            <Array as="points">
              <mxPoint x="630" y="400" />
              <mxPoint x="453" y="400" />
            </Array>
          </mxGeometry>
        </mxCell>
        <mxCell id="SlMSiqB-69G4Y2Gz-R__-40" value="&quot;Ingrese archivo md&quot;&lt;br&gt;&amp;lt;path&amp;gt;" style="shape=parallelogram;perimeter=parallelogramPerimeter;whiteSpace=wrap;html=1;fixedSize=1;fillColor=#f8cecc;strokeColor=#b85450;" vertex="1" parent="WIyWlLk6GJQsqaUBKTNV-1">
          <mxGeometry x="560" y="410" width="140" height="60" as="geometry" />
        </mxCell>
        <mxCell id="SlMSiqB-69G4Y2Gz-R__-42" value="NO" style="text;html=1;strokeColor=none;fillColor=none;align=center;verticalAlign=middle;whiteSpace=wrap;rounded=0;" vertex="1" parent="WIyWlLk6GJQsqaUBKTNV-1">
          <mxGeometry x="500" y="440" width="40" height="20" as="geometry" />
        </mxCell>
        <mxCell id="SlMSiqB-69G4Y2Gz-R__-55" style="edgeStyle=orthogonalEdgeStyle;rounded=0;orthogonalLoop=1;jettySize=auto;html=1;fillColor=#fff2cc;strokeColor=#d6b656;" edge="1" parent="WIyWlLk6GJQsqaUBKTNV-1" source="SlMSiqB-69G4Y2Gz-R__-44" target="SlMSiqB-69G4Y2Gz-R__-52">
          <mxGeometry relative="1" as="geometry">
            <Array as="points">
              <mxPoint x="270" y="775" />
            </Array>
          </mxGeometry>
        </mxCell>
        <mxCell id="SlMSiqB-69G4Y2Gz-R__-44" value="Error" style="shape=parallelogram;perimeter=parallelogramPerimeter;whiteSpace=wrap;html=1;fixedSize=1;fillColor=#f8cecc;strokeColor=#b85450;" vertex="1" parent="WIyWlLk6GJQsqaUBKTNV-1">
          <mxGeometry x="210" y="640" width="120" height="60" as="geometry" />
        </mxCell>
        <mxCell id="SlMSiqB-69G4Y2Gz-R__-50" value="NO" style="text;html=1;strokeColor=none;fillColor=none;align=center;verticalAlign=middle;whiteSpace=wrap;rounded=0;" vertex="1" parent="WIyWlLk6GJQsqaUBKTNV-1">
          <mxGeometry x="10" y="490" width="40" height="20" as="geometry" />
        </mxCell>
        <mxCell id="SlMSiqB-69G4Y2Gz-R__-51" value="NO" style="text;html=1;strokeColor=none;fillColor=none;align=center;verticalAlign=middle;whiteSpace=wrap;rounded=0;" vertex="1" parent="WIyWlLk6GJQsqaUBKTNV-1">
          <mxGeometry x="690" y="490" width="40" height="20" as="geometry" />
        </mxCell>
        <mxCell id="SlMSiqB-69G4Y2Gz-R__-52" value="FIN" style="ellipse;whiteSpace=wrap;html=1;aspect=fixed;fillColor=#f5f5f5;strokeColor=#666666;fontColor=#333333;" vertex="1" parent="WIyWlLk6GJQsqaUBKTNV-1">
          <mxGeometry x="560" y="740" width="70" height="70" as="geometry" />
        </mxCell>
      </root>
    </mxGraphModel>
  </diagram>
</mxfile>
